<svg xmlns="http://www.w3.org/2000/svg" version="1.1" xmlns:xlink="http://www.w3.org/1999/xlink" xmlns:svgjs="http://svgjs.dev/svgjs" width="2000" height="313" viewBox="0 0 2000 313"><g transform="matrix(1,0,0,1,-1.2121147681233424,-0.2715253314970596)"><svg viewBox="0 0 396 62" data-background-color="#ffffff" preserveAspectRatio="xMidYMid meet" height="313" width="2000" xmlns="http://www.w3.org/2000/svg" xmlns:xlink="http://www.w3.org/1999/xlink"><defs></defs><g id="tight-bounds" transform="matrix(1,0,0,1,0.23999872408842293,0.05378457045628693)"><svg viewBox="0 0 395.52 61.89243085908742" height="61.89243085908742" width="395.52"><g><svg viewBox="0 0 443.72751437950495 69.4361208131276" height="61.89243085908742" width="395.52"><g transform="matrix(1,0,0,1,0,9.596453744795493)"><svg viewBox="0 0 395.52 50.243213323536615" height="50.243213323536615" width="395.52"><g><svg viewBox="0 0 395.52 50.243213323536615" height="50.243213323536615" width="395.52"><g><svg viewBox="0 0 395.52 50.243213323536615" height="50.243213323536615" width="395.52"><g transform="matrix(1,0,0,1,0,0)"><svg width="395.52" viewBox="3.8299999237060547 -37.5 299.02001953125 37.9900016784668" height="50.243213323536615" data-palette-color="#d72323"><path d="M8.33-35.55L8.33-3.83 22.27-3.83 22.27 0 3.83 0 3.83-35.55 8.33-35.55ZM39.48 0L39.38-2.32Q37.23 0.49 33.1 0.49L33.1 0.49Q29.51 0.49 27.68-1.99 25.85-4.47 25.83-9.2L25.83-9.2 25.83-26.42 30.12-26.42 30.12-9.52Q30.12-3.34 33.84-3.34L33.84-3.34Q37.77-3.34 39.26-6.86L39.26-6.86 39.26-26.42 43.58-26.42 43.58 0 39.48 0ZM59.25-3.2L59.25-3.2Q61.4-3.2 62.69-4.53 63.98-5.86 64.11-8.33L64.11-8.33 68.18-8.33Q68.04-4.52 65.49-2.01 62.93 0.49 59.25 0.49L59.25 0.49Q54.34 0.49 51.77-2.6 49.19-5.69 49.19-11.79L49.19-11.79 49.19-14.7Q49.19-20.68 51.75-23.79 54.32-26.9 59.22-26.9L59.22-26.9Q63.28-26.9 65.66-24.34 68.04-21.78 68.18-17.33L68.18-17.33 64.11-17.33Q63.96-20.26 62.7-21.73 61.45-23.19 59.22-23.19L59.22-23.19Q56.34-23.19 54.95-21.3 53.56-19.41 53.51-15.09L53.51-15.09 53.51-11.72Q53.51-7.06 54.89-5.13 56.27-3.2 59.25-3.2ZM77.82-26.42L77.82 0 73.5 0 73.5-26.42 77.82-26.42ZM78.17-33.42L78.17-33.42Q78.17-32.32 77.56-31.59 76.95-30.86 75.7-30.86L75.7-30.86Q74.48-30.86 73.87-31.59 73.26-32.32 73.26-33.42 73.26-34.52 73.87-35.28 74.48-36.04 75.7-36.04 76.92-36.04 77.54-35.27 78.17-34.5 78.17-33.42ZM102.7 0L98.21 0Q97.82-0.85 97.65-2.88L97.65-2.88Q95.35 0.49 91.79 0.49L91.79 0.49Q88.2 0.49 86.18-1.53 84.17-3.54 84.17-7.2L84.17-7.2Q84.17-11.23 86.9-13.6 89.64-15.97 94.4-16.02L94.4-16.02 97.57-16.02 97.57-18.82Q97.57-21.19 96.52-22.19 95.47-23.19 93.32-23.19L93.32-23.19Q91.37-23.19 90.15-22.03 88.93-20.87 88.93-19.09L88.93-19.09 84.61-19.09Q84.61-21.12 85.81-22.96 87-24.8 89.03-25.85 91.05-26.9 93.54-26.9L93.54-26.9Q97.6-26.9 99.71-24.89 101.82-22.88 101.87-19.02L101.87-19.02 101.87-5.69Q101.89-2.64 102.7-0.39L102.7-0.39 102.7 0ZM92.45-3.44L92.45-3.44Q94.03-3.44 95.47-4.32 96.91-5.2 97.57-6.52L97.57-6.52 97.57-12.82 95.13-12.82Q92.06-12.77 90.27-11.44 88.49-10.11 88.49-7.71L88.49-7.71Q88.49-5.47 89.39-4.46 90.3-3.44 92.45-3.44ZM108.56-26.42L112.63-26.42 112.76-23.56Q115.27-26.9 119.18-26.9L119.18-26.9Q126.18-26.9 126.28-17.55L126.28-17.55 126.28 0 121.98 0 121.98-17.36Q121.98-20.46 120.95-21.77 119.91-23.07 117.83-23.07L117.83-23.07Q116.22-23.07 114.94-22 113.66-20.92 112.88-19.19L112.88-19.19 112.88 0 108.56 0 108.56-26.42ZM131.85-11.55L131.85-14.43Q131.85-20.19 134.64-23.55 137.44-26.9 142.03-26.9 146.62-26.9 149.41-23.63 152.21-20.36 152.28-14.72L152.28-14.72 152.28-11.94Q152.28-6.2 149.5-2.86 146.71 0.49 142.07 0.49L142.07 0.49Q137.49 0.49 134.71-2.76 131.94-6.01 131.85-11.55L131.85-11.55ZM136.17-14.45L136.17-11.94Q136.17-7.86 137.77-5.53 139.36-3.2 142.07-3.2L142.07-3.2Q147.79-3.2 147.96-11.45L147.96-11.45 147.96-14.43Q147.96-18.48 146.35-20.84 144.74-23.19 142.03-23.19L142.03-23.19Q139.36-23.19 137.77-20.84 136.17-18.48 136.17-14.45L136.17-14.45ZM187.68-11.28L192.19-11.28Q191.9-5.57 188.98-2.54 186.06 0.49 180.74 0.49L180.74 0.49Q175.4 0.49 172.25-3.58 169.1-7.64 169.1-14.6L169.1-14.6 169.1-21.04Q169.1-27.98 172.33-32.01 175.57-36.04 181.16-36.04L181.16-36.04Q186.31-36.04 189.13-32.95 191.95-29.86 192.19-24.12L192.19-24.12 187.68-24.12Q187.38-28.47 185.84-30.32 184.31-32.18 181.16-32.18L181.16-32.18Q177.52-32.18 175.57-29.33 173.61-26.49 173.61-21L173.61-21 173.61-14.48Q173.61-9.08 175.43-6.2 177.25-3.32 180.74-3.32 184.23-3.32 185.77-5.05 187.31-6.79 187.68-11.28L187.68-11.28ZM207.08 0.49L207.08 0.49Q202.15 0.49 199.51-2.45 196.88-5.4 196.83-11.08L196.83-11.08 196.83-14.28Q196.83-20.19 199.4-23.55 201.98-26.9 206.59-26.9L206.59-26.9Q211.23-26.9 213.53-23.95 215.82-21 215.87-14.75L215.87-14.75 215.87-11.91 201.12-11.91 201.12-11.3Q201.12-7.06 202.72-5.13 204.32-3.2 207.33-3.2L207.33-3.2Q209.23-3.2 210.68-3.92 212.14-4.64 213.41-6.2L213.41-6.2 215.65-3.47Q212.84 0.49 207.08 0.49ZM206.59-23.19L206.59-23.19Q203.91-23.19 202.61-21.35 201.32-19.51 201.15-15.63L201.15-15.63 211.55-15.63 211.55-16.21Q211.38-19.97 210.19-21.58 209.01-23.19 206.59-23.19ZM231.93-26.56L231.96-22.36Q231.05-22.53 230-22.53L230-22.53Q226.68-22.53 225.37-18.9L225.37-18.9 225.37 0 221.04 0 221.04-26.42 225.24-26.42 225.32-23.73Q227.05-26.9 230.22-26.9L230.22-26.9Q231.25-26.9 231.93-26.56L231.93-26.56ZM249.83 0L249.73-2.32Q247.58 0.49 243.45 0.49L243.45 0.49Q239.87 0.49 238.03-1.99 236.2-4.47 236.18-9.2L236.18-9.2 236.18-26.42 240.48-26.42 240.48-9.52Q240.48-3.34 244.19-3.34L244.19-3.34Q248.12-3.34 249.61-6.86L249.61-6.86 249.61-26.42 253.93-26.42 253.93 0 249.83 0ZM265.08-37.5L265.08 0 260.76 0 260.76-37.5 265.08-37.5ZM276.53-37.5L276.53 0 272.21 0 272.21-37.5 276.53-37.5ZM282.41-11.55L282.41-14.43Q282.41-20.19 285.21-23.55 288-26.9 292.59-26.9 297.18-26.9 299.98-23.63 302.77-20.36 302.85-14.72L302.85-14.72 302.85-11.94Q302.85-6.2 300.06-2.86 297.28 0.49 292.64 0.49L292.64 0.49Q288.05 0.49 285.28-2.76 282.51-6.01 282.41-11.55L282.41-11.55ZM286.73-14.45L286.73-11.94Q286.73-7.86 288.33-5.53 289.93-3.2 292.64-3.2L292.64-3.2Q298.35-3.2 298.52-11.45L298.52-11.45 298.52-14.43Q298.52-18.48 296.91-20.84 295.3-23.19 292.59-23.19L292.59-23.19Q289.93-23.19 288.33-20.84 286.73-18.48 286.73-14.45L286.73-14.45Z" opacity="1" transform="matrix(1,0,0,1,0,0)" fill="#d72323" class="undefined-text-0" data-fill-palette-color="primary" id="text-0"></path></svg></g></svg></g></svg></g></svg></g><g transform="matrix(1,0,0,1,407.38121682856723,0)"><svg viewBox="0 0 36.34629755093776 69.4361208131276" height="69.4361208131276" width="36.34629755093776"><g><svg xmlns="http://www.w3.org/2000/svg" xmlns:xlink="http://www.w3.org/1999/xlink" version="1.1" x="0" y="0" viewBox="19.682355880737305 3.5 35.572967529296875 67.95874786376953" enable-background="new 0 0 75 75" xml:space="preserve" height="69.4361208131276" width="36.34629755093776" class="icon-icon-0" data-fill-palette-color="accent" id="icon-0"><path d="M21.2 59.5c-1.1-2.6-4.2-12.2 3.8-24.7C36 18 31.7 3.5 31.7 3.5S46 8.8 41.7 37.5c-1 6.5-0.9 9 2 9.4 5 0.7 3.1-19.7 3.1-19.7s3.9 2 6.8 12.1c1.5 5.3 1.8 9.5 1.6 12.5-1 18.1-16.5 19.6-16.5 19.6S26.9 73 21.2 59.5z" fill="#8d021f" data-fill-palette-color="accent"></path></svg></g></svg></g></svg></g></svg><rect width="395.52" height="61.89243085908742" fill="none" stroke="none" visibility="hidden"></rect></g></svg></g></svg>